<svg width="0" height="0" class="hidden">
  <symbol xmlns="http://www.w3.org/2000/svg" viewBox="0 0 512 512" id="map">
    <path d="M256 0C156.748 0 76 80.748 76 180c0 33.534 9.289 66.26 26.869 94.652l142.885 230.257A15 15 0 0 0 258.499 512h.119a14.997 14.997 0 0 0 12.75-7.292L410.611 272.22C427.221 244.428 436 212.539 436 180 436 80.748 355.252 0 256 0zm128.866 256.818L258.272 468.186l-129.905-209.34C113.734 235.214 105.8 207.95 105.8 180c0-82.71 67.49-150.2 150.2-150.2S406.1 97.29 406.1 180c0 27.121-7.411 53.688-21.234 76.818z"></path>
    <path d="M256 90c-49.626 0-90 40.374-90 90 0 49.309 39.717 90 90 90 50.903 0 90-41.233 90-90 0-49.626-40.374-90-90-90zm0 150.2c-33.257 0-60.2-27.033-60.2-60.2 0-33.084 27.116-60.2 60.2-60.2s60.1 27.116 60.1 60.2c0 32.683-26.316 60.2-60.1 60.2z"></path>
  </symbol>
  <symbol xmlns="http://www.w3.org/2000/svg" viewBox="0 0 512 512" id="phone">
    <path d="M426.487 85.775c-3.907-3.905-10.237-3.905-14.143 0-3.905 3.906-3.905 10.238 0 14.143l.069.068a9.91 9.91 0 0 0 7.016 2.899 9.991 9.991 0 0 0 7.084-2.942c3.906-3.905 3.879-10.263-.026-14.168z"></path>
    <path d="M498.047 304.886c-2.56-5.39-3.511-11.325-2.75-17.164a243.849 243.849 0 0 0 1.996-35.717c-.821-46.346-14.921-91.204-40.776-129.725-3.077-4.585-9.29-5.808-13.876-2.73-4.584 3.078-5.807 9.291-2.729 13.876 23.704 35.319 36.633 76.445 37.386 118.933a224.089 224.089 0 0 1-1.832 32.778c-1.258 9.662.303 19.458 4.516 28.329 8.099 17.054 12.142 35.35 12.016 54.38-.448 67.898-56.05 123.592-123.945 124.15-19.197.15-37.555-3.903-54.704-12.068-8.53-4.063-18.119-5.528-27.735-4.239a223.519 223.519 0 0 1-29.612 1.976c-122.043 0-221.332-99.29-221.332-221.333 0-9.794.653-19.674 1.941-29.363 1.288-9.676-.208-19.319-4.328-27.884-8.258-17.17-12.388-35.612-12.279-54.813.389-68.248 56.232-123.996 124.483-124.271 19.112-.12 37.482 4.052 54.581 12.272 8.831 4.245 18.609 5.828 28.268 4.575a223.84 223.84 0 0 1 32.684-1.812c42.619.763 83.85 13.77 119.236 37.617 4.58 3.086 10.794 1.877 13.882-2.704 3.086-4.58 1.875-10.794-2.704-13.881-38.596-26.009-83.569-40.196-130.057-41.028a243.872 243.872 0 0 0-35.613 1.975c-5.811.752-11.699-.204-17.03-2.767C188.065 4.792 166.968 0 145.015 0l-.607.001C65.235.32.456 64.989.004 144.156c-.127 22.267 4.669 43.663 14.256 63.596 2.424 5.043 3.298 10.775 2.526 16.578a243.706 243.706 0 0 0-2.116 32.001c0 64.462 25.103 125.066 70.685 170.648 45.581 45.582 106.185 70.685 170.647 70.685 10.762 0 21.62-.725 32.272-2.154 5.762-.772 11.456.083 16.477 2.474C324.288 507.287 345.217 512 366.975 512c.414 0 .829-.002 1.24-.004 78.76-.647 143.26-65.253 143.781-144.018.146-22.067-4.548-43.294-13.949-63.092z"></path>
    <path d="M387.665 289.448c-22.302-52.649-77.609-64.898-131.095-76.744-8.46-1.874-17.208-3.811-25.723-5.886-8.114-1.958-26.82-7.854-25.255-20.277 1.413-11.212 18.997-26.633 44.476-26.283 24.191.434 41.837 15.693 57.404 29.156 13.224 11.436 24.653 21.314 38.193 19.654 14.639-1.787 27.505-13.024 32.016-27.962 5.558-18.4-1.981-38.137-20.697-54.161-34.901-29.775-76.851-41.314-132.037-36.319-25.682 2.306-49.59 12.107-67.319 27.598-20.243 17.688-32.339 42.347-34.979 71.28-2.758 29.206 11.074 54.878 40 74.24 29.309 19.62 64.97 27.178 83.62 29.938 30.178 4.46 53.947 14.868 57.801 25.308 1.621 4.386-.499 9.984-6.272 16.61-22.672 25.832-68.879 10.003-82.292 1.616-3.309-2.048-7.604-6.753-12.151-11.733-11.428-12.517-27.051-29.665-49.687-28.2-15.233 1.043-27.86 10.559-32.952 24.834-6.735 18.882.66 40.871 19.793 58.828 27.211 25.48 56.873 41.557 115.624 41.557 6.039 0 12.394-.17 19.074-.518h.005c42.801-2.241 84.014-25.33 104.994-58.822 14.857-23.718 17.509-49.892 7.459-73.714zm-24.407 63.097c-17.355 27.704-53.157 47.583-89.087 49.467-64.899 3.371-93.141-10.523-119.983-35.657-13.144-12.336-18.614-26.361-14.634-37.518 2.413-6.766 8.2-11.102 15.442-11.599.451-.028.899-.043 1.343-.043 12.369 0 22.468 11.063 32.248 21.772 5.511 6.038 10.718 11.741 16.356 15.23 9.222 5.767 27.682 12.912 46.42 14.972 26.008 2.857 47.259-4.187 61.491-20.402 13.66-15.677 12.967-28.612 9.98-36.703-9.616-26.046-54.701-35.368-73.638-38.167-28.901-4.277-56.392-14.035-75.421-26.773-22.765-15.238-33.267-33.991-31.21-55.771 4.967-54.452 46.739-77.445 84.181-80.808 50.146-4.539 86.308 5.21 117.246 31.604 12.586 10.776 17.752 22.558 14.546 33.175-2.221 7.351-8.51 13.064-15.296 13.893-4.79.557-14.279-7.659-22.686-14.929-16.329-14.121-38.692-33.461-70.169-34.026-15.526-.218-30.854 4.202-43.034 12.437-12.264 8.292-20.138 19.717-21.603 31.344-.93 7.392-.768 32.281 40.386 42.213 8.697 2.119 17.549 4.08 26.111 5.976 50.769 11.244 98.724 21.865 116.997 65.004 9.534 22.597 2.007 42.55-5.986 55.309zM58.602 134.065c-.066-.002-.132-.002-.198-.002-5.431 0-9.889 4.351-9.994 9.806l-.003.346c0 5.517 4.467 9.962 9.985 9.97h.015c5.502 0 9.971-4.475 10-9.976.081-5.5-4.299-10.037-9.805-10.144zm85.846-85.745h-.041c-37.151.15-71.335 22.136-87.085 56.011-2.329 5.008-.156 10.955 4.852 13.284a9.95 9.95 0 0 0 4.209.935 10 10 0 0 0 9.074-5.787c12.498-26.88 39.593-44.325 69.03-44.443 5.523-.022 9.982-4.518 9.96-10.04-.022-5.51-4.495-9.96-9.999-9.96z"></path>
  </symbol>
  <symbol xmlns="http://www.w3.org/2000/svg" viewBox="0 0 512 512" id="skype">
    <path d="M485.743 85.333H26.257C11.815 85.333 0 97.148 0 111.589V400.41c0 14.44 11.815 26.257 26.257 26.257h459.487c14.44 0 26.257-11.815 26.257-26.257V111.589c-.001-14.441-11.816-26.256-26.258-26.256zm-9.853 19.691L271.104 258.626c-3.682 2.802-9.334 4.555-15.105 4.529-5.77.026-11.421-1.727-15.104-4.529L36.109 105.024H475.89zM366.5 268.761l111.59 137.847c.112.138.249.243.368.368H33.542c.118-.131.256-.23.368-.368L145.5 268.761a9.846 9.846 0 0 0-1.464-13.851c-4.227-3.419-10.424-2.771-13.844 1.457l-110.5 136.501V117.332l209.394 157.046c7.871 5.862 17.447 8.442 26.912 8.468 9.452-.02 19.036-2.6 26.912-8.468l209.394-157.046v275.534L381.807 256.367c-3.42-4.227-9.623-4.877-13.844-1.457-4.234 3.419-4.884 9.624-1.463 13.851z"></path>
  </symbol>
</svg>